<svg xmlns="http://www.w3.org/2000/svg" viewBox="0 0 512 512" role="img" aria-labelledby="title desc">
  <title id="title">NCL Study App Icon</title>
  <desc id="desc">A green study app icon with an open book and NCL letters.</desc>
  <rect width="512" height="512" rx="96" fill="#173b32"/>
  <path d="M116 149c0-16 13-29 29-29h86c22 0 42 9 56 24 14-15 34-24 56-24h24c16 0 29 13 29 29v210c0 16-13 29-29 29h-32c-25 0-48 10-65 28l-13 13-13-13c-17-18-40-28-65-28h-64c-16 0-29-13-29-29V149z" fill="#fbfaf6"/>
  <path d="M147 155h78c23 0 42 19 42 42v176c-17-13-38-20-60-20h-60V155zm218 0v198h-18c-22 0-43 7-60 20V197c0-23 19-42 42-42h36z" fill="#e8dfc8"/>
  <path d="M171 207h70M171 247h70M171 287h70M312 207h30M312 247h30M312 287h30" stroke="#225345" stroke-width="18" stroke-linecap="round"/>
  <text x="256" y="455" text-anchor="middle" font-family="Georgia, serif" font-size="64" font-weight="700" fill="#f1d59b">NCL</text>
</svg>
